0
SECTION
2
HEADER
9
$INSUNITS
70
4
9
$ACADVER
1
AC1014
9
$HANDSEED
5
FFFF
0
ENDSEC
0
SECTION
2
TABLES
0
TABLE
2
VPORT
5
8
100
AcDbSymbolTable
0
ENDTAB
0
TABLE
2
LTYPE
5
5
100
AcDbSymbolTable
0
LTYPE
5
14
100
AcDbSymbolTableRecord
100
AcDbLinetypeTableRecord
2
BYBLOCK
70
0
0
LTYPE
5
15
100
AcDbSymbolTableRecord
100
AcDbLinetypeTableRecord
2
BYLAYER
70
0
0
ENDTAB
0
TABLE
2
LAYER
5
2
100
AcDbSymbolTable
70
2
0
LAYER
5
50
100
AcDbSymbolTableRecord
100
AcDbLayerTableRecord
2
0
70
0
6
CONTINUOUS
0
ENDTAB
0
TABLE
2
STYLE
5
3
100
AcDbSymbolTable
70
1
0
STYLE
5
11
100
AcDbSymbolTableRecord
100
AcDbTextStyleTableRecord
2
STANDARD
70
0
0
ENDTAB
0
TABLE
2
VIEW
5
6
100
AcDbSymbolTable
70
0
0
ENDTAB
0
TABLE
2
UCS
5
7
100
AcDbSymbolTable
70
0
0
ENDTAB
0
TABLE
2
APPID
5
9
100
AcDbSymbolTable
70
2
0
APPID
5
12
100
AcDbSymbolTableRecord
100
AcDbRegAppTableRecord
2
ACAD
70
0
0
ENDTAB
0
TABLE
2
DIMSTYLE
5
A
100
AcDbSymbolTable
70
1
0
ENDTAB
0
TABLE
2
BLOCK_RECORD
5
1
100
AcDbSymbolTable
70
1
0
BLOCK_RECORD
5
1F
100
AcDbSymbolTableRecord
100
AcDbBlockTableRecord
2
*MODEL_SPACE
0
BLOCK_RECORD
5
1B
100
AcDbSymbolTableRecord
100
AcDbBlockTableRecord
2
*PAPER_SPACE
0
ENDTAB
0
ENDSEC
0
SECTION
2
BLOCKS
0
BLOCK
5
20
100
AcDbEntity
100
AcDbBlockBegin
2
*MODEL_SPACE
0
ENDBLK
5
21
100
AcDbEntity
100
AcDbBlockEnd
0
BLOCK
5
1C
100
AcDbEntity
100
AcDbBlockBegin
2
*PAPER_SPACE
0
ENDBLK
5
1D
100
AcDbEntity
100
AcDbBlockEnd
0
ENDSEC
0
SECTION
2
ENTITIES
0
CIRCLE
5
100
100
AcDbEntity
8
0
100
AcDbCircle
10
-50.052497150967028
20
-34.045766308404311
30
0
40
2.5
210
0
220
0
230
1
0
CIRCLE
5
101
100
AcDbEntity
8
0
100
AcDbCircle
10
50.00000074505806
20
-34.000000506639481
30
0
40
2.4999999999999982
210
0
220
0
230
1
0
LWPOLYLINE
5
102
100
AcDbEntity
8
0
100
AcDbPolyline
90
34
70
1
43
0.0
10
-14.500000186264517
20
-30.000000417232513
10
-42.110942100772448
20
-30.000000417232513
42
0.19116572594797943
10
-47.045997359234832
20
-25.655445857804434
42
-0.84373618435358888
10
-52.960311612143244
20
-25.620736141050919
42
0.22721541187357774
10
-58.440731120955689
20
-31.033450069001706
42
-0.84373618435359121
10
-58.479541336998473
20
-36.947738835516539
42
0.23066853211797006
10
-52.960307213960924
20
-42.470797993744824
42
-0.84373618435358533
10
-47.045992979173086
20
-42.436085189497312
42
0.19414529657702062
10
-42.064972522174564
20
-38.000000566244125
10
-41.50000061839819
20
-38.000000566244125
10
-14.500000186264522
20
-38.000000566244125
42
-0.41421356237309437
10
-12.500000186264515
20
-40.000000566244118
10
-12.500000186264515
20
-39.999288668255588
10
-12.500000186264515
20
-53.000000819563866
42
0.41421356237309243
10
-10.500000186264515
20
-55.000000819563866
10
10.500000186264511
20
-55.000000819563866
42
0.41421356237309276
10
12.500000186264515
20
-53.000000819563866
10
12.500000186264515
20
-40.000000596046455
42
-0.4142135623730937
10
14.500000186264517
20
-38.000000596046448
10
41.937742891408604
20
-38.000000596046441
42
0.19630124121102996
10
47.041960852248863
20
-42.50000064820054
42
-0.84515425688746137
10
52.958040637867256
20
-42.500000648200555
42
0.22913953901680512
10
58.500000886619084
20
-36.95804039944867
42
-0.84515425688744861
10
58.500000886619084
20
-31.041960613830291
42
0.22913953901680498
10
52.958040637867249
20
-25.500000365078449
42
-0.84515425688745038
10
47.04196085224887
20
-25.500000365078449
42
0.19630124121102974
10
41.937742891408604
20
-30.000000417232513
10
14.500000186264511
20
-30.000000417232513
42
-0.4142135623730947
10
12.500000186264513
20
-28.000000417232513
10
12.500000186264515
20
39.999999582767472
42
0.41421356237309503
10
10.500000186264506
20
41.999999582767487
10
-10.500000186264502
20
41.999999582767487
42
0.41421356237309503
10
-12.500000186264513
20
39.999999582767472
10
-12.500000186264515
20
-28.000000417232513
42
-0.41421356237309503
0
CIRCLE
5
103
100
AcDbEntity
8
0
100
AcDbCircle
10
-53.181981297276018
20
-37.181981058857438
30
0
40
1.0000000000000009
210
0
220
-0
230
1
0
CIRCLE
5
104
100
AcDbEntity
8
0
100
AcDbCircle
10
-46.818020266597088
20
-30.818020028178505
30
0
40
1.0000000000000009
210
0
220
-0
230
1
0
CIRCLE
5
105
100
AcDbEntity
8
0
100
AcDbCircle
10
-46.818020266597088
20
-37.181980985100452
30
0
40
1.0000000000000011
210
0
220
0
230
1
0
CIRCLE
5
106
100
AcDbEntity
8
0
100
AcDbCircle
10
-53.181981297276018
20
-30.818019954421523
30
0
40
1.0000000000000011
210
0
220
0
230
1
0
CIRCLE
5
107
100
AcDbEntity
8
0
100
AcDbCircle
10
46.818018702723982
20
-30.818019954421523
30
0
40
1.0000000000000011
210
0
220
0
230
1
0
CIRCLE
5
108
100
AcDbEntity
8
0
100
AcDbCircle
10
53.181979733402912
20
-30.818020028178505
30
0
40
1.0000000000000009
210
0
220
-0
230
1
0
CIRCLE
5
109
100
AcDbEntity
8
0
100
AcDbCircle
10
53.181979733402912
20
-37.181980985100452
30
0
40
1.0000000000000011
210
0
220
0
230
1
0
CIRCLE
5
110
100
AcDbEntity
8
0
100
AcDbCircle
10
46.818018702723982
20
-37.181981058857438
30
0
40
1.0000000000000009
210
0
220
-0
230
1
0
CIRCLE
5
111
100
AcDbEntity
8
0
100
AcDbCircle
10
-10.000000149011612
20
12.000000298023224
30
0
40
1.1000000000000001
210
0
220
0
230
1
0
CIRCLE
5
112
100
AcDbEntity
8
0
100
AcDbCircle
10
10.000000149011612
20
12.000000298023224
30
0
40
1.100000000000001
210
0
220
0
230
1
0
CIRCLE
5
113
100
AcDbEntity
8
0
100
AcDbCircle
10
-10.000000149011612
20
-8
30
0
40
1.0999999999999999
210
0
220
0
230
1
0
CIRCLE
5
114
100
AcDbEntity
8
0
100
AcDbCircle
10
10.000000149011612
20
-8
30
0
40
1.0999999999999999
210
0
220
0
230
1
0
CIRCLE
5
115
100
AcDbEntity
8
0
100
AcDbCircle
10
-8.0000000894069672
20
10.000000208616257
30
0
40
1.0999999999999992
210
0
220
0
230
1
0
CIRCLE
5
116
100
AcDbEntity
8
0
100
AcDbCircle
10
8.0000001490116119
20
10.000000208616257
30
0
40
1.0999999999999992
210
0
220
0
230
1
0
CIRCLE
5
117
100
AcDbEntity
8
0
100
AcDbCircle
10
-8.0000000894069672
20
-6.0000000298023215
30
0
40
1.1000000000000005
210
0
220
0
230
1
0
CIRCLE
5
118
100
AcDbEntity
8
0
100
AcDbCircle
10
8.0000001490116119
20
-6.0000000298023215
30
0
40
1.1000000000000005
210
0
220
0
230
1
0
LINE
5
119
100
AcDbEntity
8
0
100
AcDbLine
10
-7.0000001043081284
20
-48.000000700354576
30
0
11
-9.0000001341104507
21
-48.000000700354576
31
0
0
LINE
5
120
100
AcDbEntity
8
0
100
AcDbLine
10
-9.0000001341104507
20
-47.000000700354576
30
0
11
-9.0000001341104507
21
-44.000000655651093
31
0
0
LINE
5
121
100
AcDbEntity
8
0
100
AcDbLine
10
-9.0000001341104507
20
-43.000000640749931
30
0
11
-7.0000001043081284
21
-43.000000640749931
31
0
0
LINE
5
122
100
AcDbEntity
8
0
100
AcDbLine
10
-7.0000001043081284
20
-44.000000655651093
30
0
11
-7.0000001043081284
21
-47.000000700354576
31
0
0
LINE
5
123
100
AcDbEntity
8
0
100
AcDbLine
10
7.0000001043081284
20
-48.000000700354576
30
0
11
9.0000001341104507
21
-48.000000700354576
31
0
0
LINE
5
124
100
AcDbEntity
8
0
100
AcDbLine
10
9.0000001341104507
20
-47.000000700354576
30
0
11
9.0000001341104507
21
-44.000000655651093
31
0
0
LINE
5
125
100
AcDbEntity
8
0
100
AcDbLine
10
9.0000001341104507
20
-43.000000640749931
30
0
11
7.0000001043081284
21
-43.000000640749931
31
0
0
LINE
5
126
100
AcDbEntity
8
0
100
AcDbLine
10
7.0000001043081284
20
-44.000000655651093
30
0
11
7.0000001043081284
21
-47.000000700354576
31
0
0
LINE
5
127
100
AcDbEntity
8
0
100
AcDbLine
10
-9.0000001341104507
20
-38.000000417232513
30
0
11
-7.0000001043081284
21
-38.000000417232513
31
0
0
LINE
5
128
100
AcDbEntity
8
0
100
AcDbLine
10
-7.0000001043081284
20
-37.000000551342964
30
0
11
-7.0000001043081284
21
-34.000000506639481
31
0
0
LINE
5
129
100
AcDbEntity
8
0
100
AcDbLine
10
-7.0000001043081284
20
-33.000000357627869
30
0
11
-9.0000001341104507
21
-33.000000357627869
31
0
0
LINE
5
130
100
AcDbEntity
8
0
100
AcDbLine
10
-9.0000001341104507
20
-34.000000506639481
30
0
11
-9.0000001341104507
21
-37.000000551342964
31
0
0
LINE
5
131
100
AcDbEntity
8
0
100
AcDbLine
10
7.0000001043081284
20
-38.000000417232513
30
0
11
9.0000001341104507
21
-38.000000417232513
31
0
0
LINE
5
132
100
AcDbEntity
8
0
100
AcDbLine
10
9.0000001341104507
20
-37.000000551342964
30
0
11
9.0000001341104507
21
-34.000000506639481
31
0
0
LINE
5
133
100
AcDbEntity
8
0
100
AcDbLine
10
9.0000001341104507
20
-33.000000357627869
30
0
11
7.0000001043081284
21
-33.000000357627869
31
0
0
LINE
5
134
100
AcDbEntity
8
0
100
AcDbLine
10
7.0000001043081284
20
-34.000000506639481
30
0
11
7.0000001043081284
21
-37.000000551342964
31
0
0
CIRCLE
5
135
100
AcDbEntity
8
0
100
AcDbCircle
10
-10.000000149011612
20
-52.500000782310963
30
0
40
1.0000000149011612
210
0
220
0
230
1
0
CIRCLE
5
136
100
AcDbEntity
8
0
100
AcDbCircle
10
10.000000149011612
20
-52.500000782310963
30
0
40
1.0000000149011612
210
0
220
0
230
1
0
CIRCLE
5
137
100
AcDbEntity
8
0
100
AcDbCircle
10
9.0000001490116137
20
38.500000581145287
30
0
40
1.4999999999999991
210
0
220
0
230
1
0
CIRCLE
5
138
100
AcDbEntity
8
0
100
AcDbCircle
10
-8.9999998509883881
20
38.500000581145287
30
0
40
1.4999999999999991
210
0
220
0
230
1
0
ARC
5
139
100
AcDbEntity
8
0
100
AcDbCircle
10
-9.0000001341104507
20
-33.5000004991889
30
0
40
0.50000014156103223
210
0
220
-0
230
1
100
AcDbArc
50
90
51
270
0
ARC
5
140
100
AcDbEntity
8
0
100
AcDbCircle
10
-7.0000001043081284
20
-33.5000004991889
30
0
40
0.5000000074505806
210
0
220
0
230
1
100
AcDbArc
50
-90
51
90
0
ARC
5
141
100
AcDbEntity
8
0
100
AcDbCircle
10
-9.0000001341104507
20
-37.500000558793545
30
0
40
0.5000000074505806
210
0
220
-0
230
1
100
AcDbArc
50
90
51
270
0
ARC
5
142
100
AcDbEntity
8
0
100
AcDbCircle
10
-7.0000001043081284
20
-37.500000558793545
30
0
40
0.49999985843896866
210
0
220
0
230
1
100
AcDbArc
50
-90
51
90
0
ARC
5
143
100
AcDbEntity
8
0
100
AcDbCircle
10
7.0000001043081284
20
-33.5000004991889
30
0
40
0.50000014156103223
210
0
220
-0
230
1
100
AcDbArc
50
90
51
270
0
ARC
5
144
100
AcDbEntity
8
0
100
AcDbCircle
10
9.0000001341104507
20
-33.5000004991889
30
0
40
0.5000000074505806
210
0
220
0
230
1
100
AcDbArc
50
-90
51
90
0
ARC
5
145
100
AcDbEntity
8
0
100
AcDbCircle
10
7.0000001043081284
20
-37.500000558793545
30
0
40
0.5000000074505806
210
0
220
-0
230
1
100
AcDbArc
50
90
51
270
0
ARC
5
146
100
AcDbEntity
8
0
100
AcDbCircle
10
9.0000001341104507
20
-37.500000558793545
30
0
40
0.49999985843896866
210
0
220
0
230
1
100
AcDbArc
50
-90
51
90
0
ARC
5
147
100
AcDbEntity
8
0
100
AcDbCircle
10
-9.0000001341104507
20
-43.500000648200512
30
0
40
0.5000000074505806
210
0
220
-0
230
1
100
AcDbArc
50
90
51
270
0
ARC
5
148
100
AcDbEntity
8
0
100
AcDbCircle
10
-7.0000001043081284
20
-43.500000648200512
30
0
40
0.5000000074505806
210
0
220
0
230
1
100
AcDbArc
50
-90
51
90
0
ARC
5
149
100
AcDbEntity
8
0
100
AcDbCircle
10
-9.0000001341104507
20
-47.500000707805157
30
0
40
0.5000000074505806
210
0
220
-0
230
1
100
AcDbArc
50
90
51
270
0
ARC
5
150
100
AcDbEntity
8
0
100
AcDbCircle
10
-7.0000001043081284
20
-47.500000707805157
30
0
40
0.49999999254941585
210
0
220
0
230
1
100
AcDbArc
50
-90
51
90
0
ARC
5
151
100
AcDbEntity
8
0
100
AcDbCircle
10
7.0000001043081284
20
-43.500000648200512
30
0
40
0.5000000074505806
210
0
220
-0
230
1
100
AcDbArc
50
90
51
270
0
ARC
5
152
100
AcDbEntity
8
0
100
AcDbCircle
10
9.0000001341104507
20
-43.500000648200512
30
0
40
0.5000000074505806
210
0
220
0
230
1
100
AcDbArc
50
-90
51
90
0
ARC
5
153
100
AcDbEntity
8
0
100
AcDbCircle
10
7.0000001043081284
20
-47.500000707805157
30
0
40
0.5000000074505806
210
0
220
-0
230
1
100
AcDbArc
50
90
51
270
0
ARC
5
154
100
AcDbEntity
8
0
100
AcDbCircle
10
9.0000001341104507
20
-47.500000707805157
30
0
40
0.49999999254941585
210
0
220
0
230
1
100
AcDbArc
50
-90
51
90
0
LWPOLYLINE
5
155
100
AcDbEntity
8
0
100
AcDbPolyline
90
8
70
1
43
0.0
10
8.0000001192092896
20
27.000000387430191
10
8.0000001192092913
20
29.000000447034836
42
0.41421356237309243
10
7.0000001192092896
20
30.000000447034836
10
3.500000037252903
20
30.000000447034836
42
0.41421356237309209
10
2.500000037252903
20
29.000000447034836
10
2.500000037252903
20
27.000000387430191
42
0.41421356237309209
10
3.500000037252903
20
26.000000387430191
10
7.0000001192092896
20
26.000000387430191
42
0.41421356237309243
0
LWPOLYLINE
5
156
100
AcDbEntity
8
0
100
AcDbPolyline
90
8
70
1
43
0.0
10
-8.0000001192092913
20
29.000000447034836
10
-8.0000001192092913
20
27.000000387430191
42
0.41421356237309243
10
-7.0000001192092896
20
26.000000387430191
10
-3.5000000372529083
20
26.000000387430191
42
0.41421356237309293
10
-2.500000037252903
20
27.000000387430198
10
-2.500000037252903
20
29.000000447034836
42
0.41421356237309209
10
-3.500000037252903
20
30.000000447034836
10
-7.0000001192092896
20
30.000000447034836
42
0.41421356237309243
0
LWPOLYLINE
5
157
100
AcDbEntity
8
0
100
AcDbPolyline
90
8
70
1
43
0.0
10
8.0000001192092896
20
-17.000000238418579
10
8.0000001192092896
20
-19.000000298023224
42
-0.4142135623730947
10
7.0000001192092896
20
-20.000000298023224
10
3.5000000298023219
20
-20.000000298023224
42
-0.41421356237309459
10
2.5000000298023228
20
-19.000000298023224
10
2.5000000298023228
20
-17.000000238418579
42
-0.41421356237309459
10
3.5000000298023219
20
-16.000000238418579
10
7.0000001192092896
20
-16.000000238418579
42
-0.4142135623730947
0
LWPOLYLINE
5
158
100
AcDbEntity
8
0
100
AcDbPolyline
90
8
70
1
43
0.0
10
-8.0000001192092896
20
-19.000000298023224
10
-8.0000001192092896
20
-17.000000238418579
42
-0.41421356237309503
10
-7.0000001192092887
20
-16.000000238418579
10
-3.5000000447034836
20
-16.000000238418579
42
-0.41421356237309459
10
-2.5000000447034836
20
-17.000000238418579
10
-2.5000000447034836
20
-19.000000298023224
42
-0.41421356237309492
10
-3.500000044703484
20
-20.000000298023224
10
-7.0000001192092896
20
-20.000000298023224
42
-0.41421356237309537
0
CIRCLE
5
159
100
AcDbEntity
8
0
100
AcDbCircle
10
1.4901161332625534e-07
20
-16.031222711640709
30
0
40
1.100000000000001
210
0
220
0
230
1
0
CIRCLE
5
160
100
AcDbEntity
8
0
100
AcDbCircle
10
1.4901161110580929e-07
20
20.031223128873215
30
0
40
1.0999999999999992
210
0
220
0
230
1
0
ENDSEC
0
SECTION
2
OBJECTS
0
DICTIONARY
5
C
100
AcDbDictionary
3
ACAD_GROUP
350
D
3
ACAD_MLINESTYLE
350
17
0
DICTIONARY
5
D
100
AcDbDictionary
0
DICTIONARY
5
1A
330
C
100
AcDbDictionary
0
DICTIONARY
5
17
100
AcDbDictionary
0
ENDSEC
0
EOF
