0
SECTION
2
HEADER
9
$INSUNITS
70
4
9
$ACADVER
1
AC1014
9
$HANDSEED
5
FFFF
0
ENDSEC
0
SECTION
2
TABLES
0
TABLE
2
VPORT
5
8
100
AcDbSymbolTable
0
ENDTAB
0
TABLE
2
LTYPE
5
5
100
AcDbSymbolTable
0
LTYPE
5
14
100
AcDbSymbolTableRecord
100
AcDbLinetypeTableRecord
2
BYBLOCK
70
0
0
LTYPE
5
15
100
AcDbSymbolTableRecord
100
AcDbLinetypeTableRecord
2
BYLAYER
70
0
0
ENDTAB
0
TABLE
2
LAYER
5
2
100
AcDbSymbolTable
70
2
0
LAYER
5
50
100
AcDbSymbolTableRecord
100
AcDbLayerTableRecord
2
0
70
0
6
CONTINUOUS
0
ENDTAB
0
TABLE
2
STYLE
5
3
100
AcDbSymbolTable
70
1
0
STYLE
5
11
100
AcDbSymbolTableRecord
100
AcDbTextStyleTableRecord
2
STANDARD
70
0
0
ENDTAB
0
TABLE
2
VIEW
5
6
100
AcDbSymbolTable
70
0
0
ENDTAB
0
TABLE
2
UCS
5
7
100
AcDbSymbolTable
70
0
0
ENDTAB
0
TABLE
2
APPID
5
9
100
AcDbSymbolTable
70
2
0
APPID
5
12
100
AcDbSymbolTableRecord
100
AcDbRegAppTableRecord
2
ACAD
70
0
0
ENDTAB
0
TABLE
2
DIMSTYLE
5
A
100
AcDbSymbolTable
70
1
0
ENDTAB
0
TABLE
2
BLOCK_RECORD
5
1
100
AcDbSymbolTable
70
1
0
BLOCK_RECORD
5
1F
100
AcDbSymbolTableRecord
100
AcDbBlockTableRecord
2
*MODEL_SPACE
0
BLOCK_RECORD
5
1B
100
AcDbSymbolTableRecord
100
AcDbBlockTableRecord
2
*PAPER_SPACE
0
ENDTAB
0
ENDSEC
0
SECTION
2
BLOCKS
0
BLOCK
5
20
100
AcDbEntity
100
AcDbBlockBegin
2
*MODEL_SPACE
0
ENDBLK
5
21
100
AcDbEntity
100
AcDbBlockEnd
0
BLOCK
5
1C
100
AcDbEntity
100
AcDbBlockBegin
2
*PAPER_SPACE
0
ENDBLK
5
1D
100
AcDbEntity
100
AcDbBlockEnd
0
ENDSEC
0
SECTION
2
ENTITIES
0
LINE
5
100
100
AcDbEntity
8
0
100
AcDbLine
10
12.500000186264515
20
-53.000000819563873
30
0
11
12.500000186264515
21
26.996781883640111
31
0
0
LINE
5
101
100
AcDbEntity
8
0
100
AcDbLine
10
-12.500000186264517
20
27.000000417232513
30
0
11
-12.500000186264515
21
-53.000000819563866
31
0
0
ARC
5
102
100
AcDbEntity
8
0
100
AcDbCircle
10
10.500000186264504
20
-53.000000819563851
30
0
40
2.0000000000000107
210
0
220
0
230
1
100
AcDbArc
50
270.00000000000011
51
360
0
ARC
5
103
100
AcDbEntity
8
0
100
AcDbCircle
10
-10.500000186264506
20
-53.000000819563851
30
0
40
2.0000000000000084
210
0
220
0
230
1
100
AcDbArc
50
180
51
269.99999999999972
0
LINE
5
104
100
AcDbEntity
8
0
100
AcDbLine
10
-41.937743041117798
20
38.000000596046448
30
0
11
-14.499900184330226
21
38.000000622602592
31
0
0
LINE
5
105
100
AcDbEntity
8
0
100
AcDbLine
10
-15.500000186264518
20
30.000000417232513
30
0
11
-41.937743041117798
21
30.000000417232513
31
0
0
CIRCLE
5
106
100
AcDbEntity
8
0
100
AcDbCircle
10
-50.00000074505806
20
34.000000506639481
30
0
40
2.5
210
0
220
0
230
1
0
CIRCLE
5
107
100
AcDbEntity
8
0
100
AcDbCircle
10
-53.181981302544372
20
37.181981064125793
30
0
40
1
210
0
220
-0
230
1
0
CIRCLE
5
108
100
AcDbEntity
8
0
100
AcDbCircle
10
-46.818020271865436
20
30.818020033446864
30
0
40
1
210
0
220
-0
230
1
0
CIRCLE
5
109
100
AcDbEntity
8
0
100
AcDbCircle
10
-46.818020187571747
20
37.181981064125793
30
0
40
1
210
-0
220
0
230
1
0
CIRCLE
5
110
100
AcDbEntity
8
0
100
AcDbCircle
10
-53.181981218250662
20
30.81802003344686
30
0
40
1
210
-0
220
0
230
1
0
CIRCLE
5
111
100
AcDbEntity
8
0
100
AcDbCircle
10
-10.000000149011612
20
-52.500000774860382
30
0
40
1
210
0
220
0
230
1
0
CIRCLE
5
112
100
AcDbEntity
8
0
100
AcDbCircle
10
10.000000163912773
20
-52.500000789761543
30
0
40
0.99999999999999645
210
0
220
0
230
1
0
CIRCLE
5
113
100
AcDbEntity
8
0
100
AcDbCircle
10
53.181979812428253
20
37.181981064125793
30
0
40
1
210
-0
220
0
230
1
0
CIRCLE
5
114
100
AcDbEntity
8
0
100
AcDbCircle
10
46.818018781749338
20
30.81802003344686
30
0
40
1
210
-0
220
0
230
1
0
CIRCLE
5
115
100
AcDbEntity
8
0
100
AcDbCircle
10
46.818018697455628
20
37.181981064125793
30
0
40
1
210
0
220
-0
230
1
0
CIRCLE
5
116
100
AcDbEntity
8
0
100
AcDbCircle
10
53.181979728134564
20
30.818020033446864
30
0
40
1
210
0
220
-0
230
1
0
CIRCLE
5
117
100
AcDbEntity
8
0
100
AcDbCircle
10
49.99999925494194
20
34.000000506639481
30
0
40
2.5
210
0
220
0
230
1
0
CIRCLE
5
118
100
AcDbEntity
8
0
100
AcDbCircle
10
-9.0000001490116119
20
38.500000588595867
30
0
40
1.5000000223517418
210
0
220
0
230
1
0
CIRCLE
5
119
100
AcDbEntity
8
0
100
AcDbCircle
10
9.0000001490116119
20
38.500000588595867
30
0
40
1.5000000223517418
210
0
220
0
230
1
0
LWPOLYLINE
5
120
100
AcDbEntity
8
0
100
AcDbPolyline
90
8
70
1
43
0.0
10
-9.5001001192092911
20
10.000000223517418
10
-9.5000001192092913
20
10.000000223517418
42
-0.41421356237309503
10
-8.5000001192092896
20
9.0000002235174197
10
-8.5000001192092896
20
-9.000000074505806
42
-0.41421356237309503
10
-9.5000001192092896
20
-10.000000074505806
10
-9.5000948153977909
20
-10.000000074505806
42
-0.4142135623730957
10
-10.500094815397791
20
-9.000000074505806
10
-10.500094815397794
20
9.0000002235314849
42
-0.41421200892352666
0
LINE
5
121
100
AcDbEntity
8
0
100
AcDbLine
10
8.4999998509883881
20
9.0000002185203982
30
0
11
8.4999998509883881
21
-9.0000000795028274
31
0
0
LINE
5
122
100
AcDbEntity
8
0
100
AcDbLine
10
9.4998998807907107
20
-10.000000074505806
30
0
11
9.4999998807907122
21
-10.000000074505806
31
0
0
LINE
5
123
100
AcDbEntity
8
0
100
AcDbLine
10
10.499999885787732
20
-9.000000074505806
30
0
11
10.49999988079071
21
9.0000002285149385
31
0
0
LINE
5
124
100
AcDbEntity
8
0
100
AcDbLine
10
9.5000998559854093
20
10.000000223517418
30
0
11
9.4999998559854095
21
10.000000223517418
31
0
0
ARC
5
125
100
AcDbEntity
8
0
100
AcDbCircle
10
9.4999998509883881
20
-9.0000000795028274
30
0
40
0.99999999999999978
210
0
220
0
230
1
100
AcDbArc
50
180
51
269.99427212958642
0
ARC
5
126
100
AcDbEntity
8
0
100
AcDbCircle
10
9.4999998807907122
20
9.0000002285149385
30
0
40
0.99999999999999978
210
0
220
-0
230
1
100
AcDbArc
50
0
51
89.994271843278327
0
ARC
5
127
100
AcDbEntity
8
0
100
AcDbCircle
10
9.4999998807907122
20
-9.000000074505806
30
0
40
0.99999999999999978
210
0
220
0
230
1
100
AcDbArc
50
-90
51
0
0
ARC
5
128
100
AcDbEntity
8
0
100
AcDbCircle
10
9.4999998559854095
20
9.0000002185203982
30
0
40
1.0000000049970204
210
0
220
-0
230
1
100
AcDbArc
50
90
51
180
0
LINE
5
129
100
AcDbEntity
8
0
100
AcDbLine
10
-9.0000001341104507
20
-33.000000357627869
30
0
11
-7.0000001043081284
21
-33.000000357627869
31
0
0
LINE
5
130
100
AcDbEntity
8
0
100
AcDbLine
10
-7.0000001043081284
20
-34.000000506639481
30
0
11
-7.0000001043081284
21
-37.000000551342964
31
0
0
LINE
5
131
100
AcDbEntity
8
0
100
AcDbLine
10
-7.0000001043081284
20
-38.000000417232513
30
0
11
-9.0000001341104507
21
-38.000000417232513
31
0
0
LINE
5
132
100
AcDbEntity
8
0
100
AcDbLine
10
-9.0000001341104507
20
-37.000000551342964
30
0
11
-9.0000001341104507
21
-34.000000506639481
31
0
0
LINE
5
133
100
AcDbEntity
8
0
100
AcDbLine
10
9.0000001341104507
20
-33.000000357627869
30
0
11
7.0000001043081284
21
-33.000000357627869
31
0
0
LINE
5
134
100
AcDbEntity
8
0
100
AcDbLine
10
7.0000001043081284
20
-34.000000506639481
30
0
11
7.0000001043081284
21
-37.000000551342964
31
0
0
LINE
5
135
100
AcDbEntity
8
0
100
AcDbLine
10
7.0000001043081284
20
-38.000000417232513
30
0
11
9.0000001341104507
21
-38.000000417232513
31
0
0
LINE
5
136
100
AcDbEntity
8
0
100
AcDbLine
10
9.0000001341104507
20
-37.000000551342964
30
0
11
9.0000001341104507
21
-34.000000506639481
31
0
0
LINE
5
137
100
AcDbEntity
8
0
100
AcDbLine
10
9.0000001341104507
20
-43.000000640749931
30
0
11
7.0000001043081284
21
-43.000000640749931
31
0
0
LINE
5
138
100
AcDbEntity
8
0
100
AcDbLine
10
7.0000001043081284
20
-44.000000655651093
30
0
11
7.0000001043081284
21
-47.000000700354576
31
0
0
LINE
5
139
100
AcDbEntity
8
0
100
AcDbLine
10
7.0000001043081284
20
-48.000000700354576
30
0
11
9.0000001341104507
21
-48.000000700354576
31
0
0
LINE
5
140
100
AcDbEntity
8
0
100
AcDbLine
10
9.0000001341104507
20
-47.000000700354576
30
0
11
9.0000001341104507
21
-44.000000655651093
31
0
0
LINE
5
141
100
AcDbEntity
8
0
100
AcDbLine
10
-9.0000001341104507
20
-43.000000640749931
30
0
11
-7.0000001043081284
21
-43.000000640749931
31
0
0
LINE
5
142
100
AcDbEntity
8
0
100
AcDbLine
10
-7.0000001043081284
20
-44.000000655651093
30
0
11
-7.0000001043081284
21
-47.000000700354576
31
0
0
LINE
5
143
100
AcDbEntity
8
0
100
AcDbLine
10
-7.0000001043081284
20
-48.000000700354576
30
0
11
-9.0000001341104507
21
-48.000000700354576
31
0
0
LINE
5
144
100
AcDbEntity
8
0
100
AcDbLine
10
-9.0000001341104507
20
-47.000000700354576
30
0
11
-9.0000001341104507
21
-44.000000655651093
31
0
0
LINE
5
145
100
AcDbEntity
8
0
100
AcDbLine
10
7.0000001043081284
20
-54.000000819563866
30
0
11
7.0000001043081284
21
-50.00000074505806
31
0
0
LINE
5
146
100
AcDbEntity
8
0
100
AcDbLine
10
-7.000000074505806
20
-50.000000750058049
30
0
11
-7.0000001043081292
21
-54.000000819563866
31
0
0
LINE
5
147
100
AcDbEntity
8
0
100
AcDbLine
10
-10.500000186264515
20
-55.000000819563866
30
0
11
-8.0000001043081284
21
-55.000000819563866
31
0
0
LINE
5
148
100
AcDbEntity
8
0
100
AcDbLine
10
8.0000001043081284
20
-55.000000819563866
30
0
11
10.500000186264508
21
-55.000000819563866
31
0
0
ARC
5
149
100
AcDbEntity
8
0
100
AcDbCircle
10
8.000000104308123
20
-54.000000819563866
30
0
40
0.99999999999999423
210
0
220
0
230
1
100
AcDbArc
50
180
51
270.00000000000034
0
ARC
5
150
100
AcDbEntity
8
0
100
AcDbCircle
10
-8.0000001043081213
20
-54.000000819563866
30
0
40
0.99999999999999645
210
0
220
0
230
1
100
AcDbArc
50
-90.000000000000398
51
0
0
LINE
5
151
100
AcDbEntity
8
0
100
AcDbLine
10
-3.0000000447034836
20
41.00000062584877
30
0
11
-3.0000000447034836
21
40.000000581145287
31
0
0
LINE
5
152
100
AcDbEntity
8
0
100
AcDbLine
10
-2.0000000447034836
20
39.000000581145294
30
0
11
2.0000000447034831
21
39.000000581145287
31
0
0
LINE
5
153
100
AcDbEntity
8
0
100
AcDbLine
10
3.0000000447034862
20
40.000000581145287
30
0
11
3.0000000447034845
21
41.00000062584877
31
0
0
LINE
5
154
100
AcDbEntity
8
0
100
AcDbLine
10
11.500011439369475
20
42.000000627291037
30
0
11
4.0000000445111752
21
42.00000062584877
31
0
0
LINE
5
155
100
AcDbEntity
8
0
100
AcDbLine
10
-4.0000000447034836
20
42.00000062584877
30
0
11
-10.500000186264515
21
42.00000062584877
31
0
0
ARC
5
156
100
AcDbEntity
8
0
100
AcDbCircle
10
-4.0000000447034783
20
41.00000062584877
30
0
40
0.99999999999999423
210
0
220
0
230
1
100
AcDbArc
50
0
51
90.000000000000313
0
ARC
5
157
100
AcDbEntity
8
0
100
AcDbCircle
10
-2.0000000447034898
20
40.000000581145287
30
0
40
0.99999999999999367
210
0
220
0
230
1
100
AcDbArc
50
180
51
270.00000000000034
0
ARC
5
158
100
AcDbEntity
8
0
100
AcDbCircle
10
2.0000000447034898
20
40.000000581145287
30
0
40
0.99999999999999645
210
0
220
0
230
1
100
AcDbArc
50
-90.000000000000398
51
0
0
ARC
5
159
100
AcDbEntity
8
0
100
AcDbCircle
10
4.0000000447034774
20
41.00000062584877
30
0
40
0.99999999999999645
210
0
220
0
230
1
100
AcDbArc
50
90.000000011018102
51
180
0
LINE
5
160
100
AcDbEntity
8
0
100
AcDbLine
10
12.500000188156704
20
39.999950625963471
30
0
11
12.500000188156751
21
40.000050625963475
31
0
0
LINE
5
161
100
AcDbEntity
8
0
100
AcDbLine
10
10.500100190627467
20
42.000050624394248
30
0
11
11.500011439369475
21
42.000000627291037
31
0
0
ARC
5
162
100
AcDbEntity
8
0
100
AcDbCircle
10
10.500000188156751
20
40.000050626896055
30
0
40
1.9999999999999996
210
0
220
0
230
1
100
AcDbArc
50
0
51
89.997135140242321
0
LINE
5
163
100
AcDbEntity
8
0
100
AcDbLine
10
-12.499900186267405
20
39.99999821785952
30
0
11
-12.499900186147171
21
40.000098217859524
31
0
0
LINE
5
164
100
AcDbEntity
8
0
100
AcDbLine
10
-10.499900186264515
20
42.00000062584877
30
0
11
-10.500000186264515
21
42.00000062584877
31
0
0
ARC
5
165
100
AcDbEntity
8
0
100
AcDbCircle
10
-10.499900186264519
20
40.000000625848777
30
0
40
1.9999999999999929
210
0
220
-0
230
1
100
AcDbArc
50
89.999999999999901
51
179.99720419490319
0
ARC
5
166
100
AcDbEntity
8
0
100
AcDbCircle
10
-15.50000018626452
20
27.000000417232513
30
0
40
3.0000000000000027
210
0
220
0
230
1
100
AcDbArc
50
0
51
89.999999999999972
0
ARC
5
167
100
AcDbEntity
8
0
100
AcDbCircle
10
15.500000186264511
20
26.996781883640125
30
0
40
2.999999999999996
210
0
220
0
230
1
100
AcDbArc
50
90.00695882365568
51
180
0
ARC
5
168
100
AcDbEntity
8
0
100
AcDbCircle
10
-14.499900186265958
20
40.000000622602592
30
0
40
2.0000000000000018
210
0
220
0
230
1
100
AcDbArc
50
270.00000005545462
51
359.99993111363955
0
ARC
5
169
100
AcDbEntity
8
0
100
AcDbCircle
10
14.500000188156704
20
39.999950625030884
30
0
40
2.0000000000000018
210
0
220
0
230
1
100
AcDbArc
50
180
51
269.99999994579218
0
ARC
5
170
100
AcDbEntity
8
0
100
AcDbCircle
10
-9.0000001341104507
20
-33.5000004991889
30
0
40
0.50000014156103223
210
0
220
-0
230
1
100
AcDbArc
50
90
51
270
0
ARC
5
171
100
AcDbEntity
8
0
100
AcDbCircle
10
-7.0000001043081284
20
-33.5000004991889
30
0
40
0.5000000074505806
210
0
220
0
230
1
100
AcDbArc
50
-90
51
90
0
ARC
5
172
100
AcDbEntity
8
0
100
AcDbCircle
10
-9.0000001341104507
20
-37.500000558793545
30
0
40
0.5000000074505806
210
0
220
-0
230
1
100
AcDbArc
50
90
51
270
0
ARC
5
173
100
AcDbEntity
8
0
100
AcDbCircle
10
-7.0000001043081284
20
-37.500000558793545
30
0
40
0.49999985843896866
210
0
220
0
230
1
100
AcDbArc
50
-90
51
90
0
ARC
5
174
100
AcDbEntity
8
0
100
AcDbCircle
10
7.0000001043081284
20
-33.5000004991889
30
0
40
0.50000014156103223
210
0
220
-0
230
1
100
AcDbArc
50
90
51
270
0
ARC
5
175
100
AcDbEntity
8
0
100
AcDbCircle
10
7.0000001043081284
20
-37.500000558793545
30
0
40
0.5000000074505806
210
0
220
-0
230
1
100
AcDbArc
50
90
51
270
0
ARC
5
176
100
AcDbEntity
8
0
100
AcDbCircle
10
9.0000001341104507
20
-37.500000558793545
30
0
40
0.49999985843896866
210
0
220
0
230
1
100
AcDbArc
50
-90
51
90
0
ARC
5
177
100
AcDbEntity
8
0
100
AcDbCircle
10
9.0000001341104507
20
-33.5000004991889
30
0
40
0.5000000074505806
210
0
220
0
230
1
100
AcDbArc
50
-90
51
90
0
ARC
5
178
100
AcDbEntity
8
0
100
AcDbCircle
10
-9.0000001341104507
20
-43.500000648200512
30
0
40
0.5000000074505806
210
0
220
-0
230
1
100
AcDbArc
50
90
51
270
0
ARC
5
179
100
AcDbEntity
8
0
100
AcDbCircle
10
-7.0000001043081284
20
-43.500000648200512
30
0
40
0.5000000074505806
210
0
220
0
230
1
100
AcDbArc
50
-90
51
90
0
ARC
5
180
100
AcDbEntity
8
0
100
AcDbCircle
10
-9.0000001341104507
20
-47.500000707805157
30
0
40
0.5000000074505806
210
0
220
-0
230
1
100
AcDbArc
50
90
51
270
0
ARC
5
181
100
AcDbEntity
8
0
100
AcDbCircle
10
-7.0000001043081284
20
-47.500000707805157
30
0
40
0.49999999254941585
210
0
220
0
230
1
100
AcDbArc
50
-90
51
90
0
ARC
5
182
100
AcDbEntity
8
0
100
AcDbCircle
10
7.0000001043081284
20
-43.500000648200512
30
0
40
0.5000000074505806
210
0
220
-0
230
1
100
AcDbArc
50
90
51
270
0
ARC
5
183
100
AcDbEntity
8
0
100
AcDbCircle
10
9.0000001341104507
20
-43.500000648200512
30
0
40
0.5000000074505806
210
0
220
0
230
1
100
AcDbArc
50
-90
51
90
0
ARC
5
184
100
AcDbEntity
8
0
100
AcDbCircle
10
7.0000001043081284
20
-47.500000707805157
30
0
40
0.5000000074505806
210
0
220
-0
230
1
100
AcDbArc
50
90
51
270
0
ARC
5
185
100
AcDbEntity
8
0
100
AcDbCircle
10
9.0000001341104507
20
-47.500000707805157
30
0
40
0.49999999254941585
210
0
220
0
230
1
100
AcDbArc
50
-90
51
90
0
LWPOLYLINE
5
186
100
AcDbEntity
8
0
100
AcDbPolyline
90
8
70
1
43
0.0
10
8.0000001192092896
20
21.000000298023224
10
8.0000001192092896
20
24.00000037252903
42
0.41421356237309798
10
7.0000001192092922
20
25.000000372529033
10
4.0000000447034818
20
25.00000037252903
42
0.41421356237309176
10
3.0000000447034836
20
24.00000037252903
10
3.0000000447034836
20
21.000000298023224
42
0.41421356237309209
10
4.0000000447034836
20
20.000000298023224
10
7.0000001192092896
20
20.000000298023224
42
0.41421356237309243
0
LWPOLYLINE
5
187
100
AcDbEntity
8
0
100
AcDbPolyline
90
8
70
1
43
0.0
10
-8.0000001192092913
20
24.00000037252903
10
-8.0000001192092896
20
21.000000298023224
42
0.41421356237309243
10
-7.0000001192092887
20
20.000000298023224
10
-4.0000000447034836
20
20.000000298023224
42
0.41421356237309209
10
-3.0000000447034836
20
21.000000298023224
10
-3.0000000447034836
20
24.00000037252903
42
0.41421356237309209
10
-4.0000000447034836
20
25.00000037252903
10
-7.0000001192092896
20
25.00000037252903
42
0.41421356237309243
0
LWPOLYLINE
5
188
100
AcDbEntity
8
0
100
AcDbPolyline
90
8
70
1
43
0.0
10
-8.0000001192092913
20
-23.999999627470977
10
-8.0000001192092896
20
-26.999999701976783
42
0.41421356237309243
10
-7.0000001192092887
20
-27.999999701976783
10
-4.0000000447034836
20
-27.999999701976783
42
0.41421356237309209
10
-3.0000000447034836
20
-26.999999701976783
10
-3.0000000447034836
20
-23.999999627470977
42
0.41421356237309209
10
-4.0000000447034836
20
-22.999999627470977
10
-7.0000001192092896
20
-22.999999627470977
42
0.41421356237309243
0
LWPOLYLINE
5
189
100
AcDbEntity
8
0
100
AcDbPolyline
90
8
70
1
43
0.0
10
3.0000000447034836
20
-23.999999627470984
42
-0.41421356237309176
10
4.0000000447034818
20
-22.999999627470977
10
7.0000001192092922
20
-22.999999627470974
42
-0.41421356237309798
10
8.0000001192092896
20
-23.999999627470977
10
8.0000001192092913
20
-26.999999701976783
42
-0.41421356237309243
10
7.0000001192092896
20
-27.999999701976783
10
4.0000000447034836
20
-27.999999701976783
42
-0.41421356237309209
10
3.0000000447034836
20
-26.999999701976783
0
LINE
5
190
100
AcDbEntity
8
0
100
AcDbLine
10
-5.0000000745058113
20
-43.000000670552261
30
0
11
4.9999999254941994
21
-43.000000670552261
31
0
0
LINE
5
191
100
AcDbEntity
8
0
100
AcDbLine
10
5.9999999254941958
20
-44.000000670552254
30
0
11
5.999999925494194
21
-47.000000759959228
31
0
0
LINE
5
192
100
AcDbEntity
8
0
100
AcDbLine
10
-6.000000074505806
20
-47.000000754962208
30
0
11
-6.0000000745058077
21
-44.000000670552254
31
0
0
LINE
5
193
100
AcDbEntity
8
0
100
AcDbLine
10
6.0000999254941885
20
-48.000000759959221
30
0
11
5.9999999254941887
21
-48.000000759959221
31
0
0
LINE
5
194
100
AcDbEntity
8
0
100
AcDbLine
10
-6.000000079502823
20
-48.000000759959221
30
0
11
-6.0001000795028236
21
-48.000000759959221
31
0
0
ARC
5
195
100
AcDbEntity
8
0
100
AcDbCircle
10
-5.0000000745058113
20
-44.000000670552254
30
0
40
0.99999999999999645
210
0
220
-0
230
1
100
AcDbArc
50
90
51
180
0
ARC
5
196
100
AcDbEntity
8
0
100
AcDbCircle
10
4.9999999254941994
20
-44.000000670552254
30
0
40
0.99999999999999645
210
0
220
-0
230
1
100
AcDbArc
50
0
51
90
0
LINE
5
197
100
AcDbEntity
8
0
100
AcDbLine
10
5.999999925494194
20
-47.000000759959228
30
0
11
5.9999999254941905
21
-49.00000074505806
31
0
0
LINE
5
198
100
AcDbEntity
8
0
100
AcDbLine
10
6.9999001043081277
20
-50.00000074505806
30
0
11
7.0000001043081284
21
-50.00000074505806
31
0
0
LINE
5
199
100
AcDbEntity
8
0
100
AcDbLine
10
-6.000000074505806
20
-47.000000754962208
30
0
11
-6.000000074505806
21
-49.00000074505806
31
0
0
LINE
5
200
100
AcDbEntity
8
0
100
AcDbLine
10
-6.9999000745059314
20
-50.000000740058056
30
0
11
-7.000000074505806
21
-50.000000750058049
31
0
0
ARC
5
201
100
AcDbEntity
8
0
100
AcDbCircle
10
-7.0000000745057998
20
-49.00000074505806
30
0
40
0.999999999999996
210
0
220
0
230
1
100
AcDbArc
50
-89.994270422046682
51
0
0
ARC
5
202
100
AcDbEntity
8
0
100
AcDbCircle
10
6.9999999254941798
20
-49.000000745058074
30
0
40
0.99999999999998979
210
0
220
0
230
1
100
AcDbArc
50
180
51
269.9942806673522
0
ARC
5
203
100
AcDbEntity
8
0
100
AcDbCircle
10
-49.99999888241291
20
42.999999036639935
30
0
40
2.9999999999999982
210
0
220
0
230
1
100
AcDbArc
50
189.59402947756749
51
350.40594680649389
0
ARC
5
204
100
AcDbEntity
8
0
100
AcDbCircle
10
-59.00000074505806
20
34.000000506639481
30
0
40
2.9999999999999987
210
0
220
0
230
1
100
AcDbArc
50
-80.405931773139258
51
80.405931773139258
0
ARC
5
205
100
AcDbEntity
8
0
100
AcDbCircle
10
-49.99999888241291
20
24.999999036639935
30
0
40
3.0000000000000004
210
0
220
-0
230
1
100
AcDbArc
50
9.594106976154837
51
170.40591673977588
0
ARC
5
206
100
AcDbEntity
8
0
100
AcDbCircle
10
-50.00000074505806
20
34.000000506639481
30
0
40
8.9999999999999911
210
0
220
-0
230
1
100
AcDbArc
50
26.387800596628551
51
70.81185010646945
0
ARC
5
207
100
AcDbEntity
8
0
100
AcDbCircle
10
-50.00000074505806
20
34.000000506639481
30
0
40
8.9999999999999929
210
0
220
0
230
1
100
AcDbArc
50
109.18812617759204
51
160.81186354627911
0
ARC
5
208
100
AcDbEntity
8
0
100
AcDbCircle
10
-50.00000074505806
20
34.000000506639481
30
0
40
8.9999999999999876
210
0
220
0
230
1
100
AcDbArc
50
199.18813645372089
51
250.81187698608952
0
ARC
5
209
100
AcDbEntity
8
0
100
AcDbCircle
10
-50.00000074505806
20
34.000000506639481
30
0
40
8.9999999999999911
210
0
220
0
230
1
100
AcDbArc
50
289.18814672984126
51
333.61219940337145
0
ARC
5
210
100
AcDbEntity
8
0
100
AcDbCircle
10
49.999998806818567
20
42.99995235878805
30
0
40
3.0000000000000049
210
0
220
0
230
1
100
AcDbArc
50
189.592257685536
51
350.40774802017853
0
ARC
5
211
100
AcDbEntity
8
0
100
AcDbCircle
10
58.962171251915265
20
34.024268152811196
30
0
40
3.0000000000000004
210
0
220
0
230
1
100
AcDbArc
50
99.056192759385013
51
261.25409593102876
0
ARC
5
212
100
AcDbEntity
8
0
100
AcDbCircle
10
49.99999925494194
20
34.000000506639481
30
0
40
9.0000481478513077
210
0
220
-0
230
1
100
AcDbArc
50
19.382484926819327
51
70.811866408837346
0
ARC
5
213
100
AcDbEntity
8
0
100
AcDbCircle
10
49.999997715808526
20
24.999952358788335
30
0
40
2.9999999999999987
210
0
220
-0
230
1
100
AcDbArc
50
9.5940066176423056
51
170.40597378560719
0
ARC
5
214
100
AcDbEntity
8
0
100
AcDbCircle
10
49.99999925494194
20
34.000000506639481
30
0
40
9.0000481478512953
210
0
220
0
230
1
100
AcDbArc
50
289.18802303366061
51
340.92780376359434
0
LINE
5
215
100
AcDbEntity
8
0
100
AcDbLine
10
14.500000186264494
20
37.999950625030877
30
0
11
41.937662997895174
21
37.999950599071958
31
0
0
LINE
5
216
100
AcDbEntity
8
0
100
AcDbLine
10
15.499635823110836
20
29.996781861513369
30
0
11
41.937691542812942
21
29.999992879323408
31
0
0
ARC
5
217
100
AcDbEntity
8
0
100
AcDbCircle
10
49.99999925494194
20
34.000000506639481
30
0
40
9.0000481478512935
210
0
220
0
230
1
100
AcDbArc
50
109.18813929687714
51
153.61270678727053
0
ARC
5
218
100
AcDbEntity
8
0
100
AcDbCircle
10
49.99999925494194
20
34.000000506639481
30
0
40
9.0000481478512935
210
0
220
0
230
1
100
AcDbArc
50
206.38770209071907
51
250.8119573695889
0
ENDSEC
0
SECTION
2
OBJECTS
0
DICTIONARY
5
C
100
AcDbDictionary
3
ACAD_GROUP
350
D
3
ACAD_MLINESTYLE
350
17
0
DICTIONARY
5
D
100
AcDbDictionary
0
DICTIONARY
5
1A
330
C
100
AcDbDictionary
0
DICTIONARY
5
17
100
AcDbDictionary
0
ENDSEC
0
EOF
